<svg width="1867" height="234" viewBox="0 0 1867 234" fill="none" xmlns="http://www.w3.org/2000/svg">
<path d="M104.013 139.232L70.9219 135.82C48.8611 133.319 31.9176 126.496 20.0912 115.352C8.49221 103.98 2.69273 88.6284 2.69273 69.2968C2.69273 48.1458 10.4254 31.4296 25.8906 19.1484C41.3559 6.86715 62.3932 0.726522 89.0026 0.726522C114.702 0.726522 135.398 7.09458 151.091 19.8307C167.011 32.3394 176.109 49.6241 178.383 71.6849H135.74C133.693 59.4036 128.803 50.3064 121.07 44.3932C113.565 38.2526 102.762 35.1822 88.6615 35.1822C75.4705 35.1822 64.895 38.1388 56.9349 44.052C48.9748 49.7378 44.9948 57.3567 44.9948 66.9088C44.9948 81.9192 56.0252 90.789 78.086 93.5182L109.13 96.9296C158.255 102.388 182.818 125.472 182.818 166.182C182.818 179.828 179.179 191.768 171.901 202.003C164.851 212.009 154.844 219.856 141.88 225.542C129.144 231 114.247 233.729 97.1901 233.729C69.2162 233.729 46.8143 227.247 29.9844 214.284C13.1545 201.32 3.48874 183.808 0.987 161.747H44.3125C48.4063 186.537 66.1459 198.932 97.5313 198.932C110.267 198.932 120.615 196.089 128.576 190.404C136.536 184.718 140.516 176.985 140.516 167.206C140.516 151.286 128.348 141.961 104.013 139.232Z" fill="#090a10"/>
<path d="M213.521 3.79683H255.823V231H213.521V3.79683Z" fill="#090a10"/>
<path d="M431.513 231H289.938V3.79683H332.24V191.427H431.513V231Z" fill="#090a10"/>
<path d="M459.487 3.79683H501.789V93.8593H604.474V3.79683H646.435V231H604.474V133.432H501.789V231H459.487V3.79683Z" fill="#090a10"/>
<path d="M677.82 120.128C677.82 96.0199 682.142 75.0963 690.784 57.3567C699.654 39.3897 712.049 25.4027 727.969 15.3958C743.889 5.38885 762.424 0.385376 783.576 0.385376C804.727 0.385376 823.148 5.38885 838.841 15.3958C854.761 25.4027 867.156 39.3897 876.026 57.3567C884.896 75.0963 889.331 96.0199 889.331 120.128C889.331 142.871 884.896 162.771 876.026 179.828C867.156 196.885 854.761 210.19 838.841 219.742C823.148 229.067 804.727 233.729 783.576 233.729C762.424 233.729 743.889 229.067 727.969 219.742C712.049 210.19 699.654 196.885 690.784 179.828C682.142 162.771 677.82 142.871 677.82 120.128ZM846.346 120.128C846.346 94.4279 840.774 74.414 829.63 60.0859C818.714 45.7578 803.362 38.5937 783.576 38.5937C763.562 38.5937 748.096 45.7578 737.18 60.0859C726.263 74.414 720.805 94.4279 720.805 120.128C720.805 143.78 726.263 162.202 737.18 175.393C748.096 188.584 763.562 195.18 783.576 195.18C803.362 195.18 818.714 188.584 829.63 175.393C840.774 162.202 846.346 143.78 846.346 120.128Z" fill="#090a10"/>
<path d="M918.669 3.79683H960.63V142.984C960.63 158.904 964.951 171.299 973.594 180.169C982.463 189.039 994.858 193.474 1010.78 193.474C1025.79 193.474 1037.39 189.039 1045.58 180.169C1053.99 171.299 1058.2 158.904 1058.2 142.984V3.79683H1100.16V142.984C1100.16 161.179 1096.41 177.099 1088.9 190.745C1081.4 204.391 1070.93 214.966 1057.52 222.471C1044.1 229.977 1028.52 233.729 1010.78 233.729C992.357 233.729 976.209 229.977 962.336 222.471C948.463 214.966 937.66 204.391 929.927 190.745C922.422 177.099 918.669 161.179 918.669 142.984V3.79683Z" fill="#090a10"/>
<path d="M1292.22 3.79683V43.3697H1175.21V95.5651H1282.33V135.138H1175.21V191.427H1292.22V231H1132.91V3.79683H1292.22Z" fill="#090a10"/>
<path d="M1487.7 3.79683V43.3697H1422.88V231H1381.26V43.3697H1316.45V3.79683H1487.7Z" fill="#090a10"/>
<path d="M1679.77 3.79683V43.3697H1614.95V231H1573.33V43.3697H1508.51V3.79683H1679.77Z" fill="#090a10"/>
<path d="M1866.71 3.79683V43.3697H1749.7V95.5651H1856.82V135.138H1749.7V191.427H1866.71V231H1707.4V3.79683H1866.71Z" fill="#090a10"/>
</svg>
